<?xml version="1.0" standalone="no"?>
<svg xmlns:xlink="http://www.w3.org/1999/xlink" id="wave" style="transform:rotate(180deg); transition: 0.3s" viewBox="0 0 1440 100" version="1.1" xmlns="http://www.w3.org/2000/svg"><defs><linearGradient id="sw-gradient-0" x1="0" x2="0" y1="1" y2="0"><stop stop-color="rgba(255, 249, 234, 1)" offset="0%"/><stop stop-color="rgba(255, 255, 153, 0.9176470588235294)" offset="100%"/></linearGradient></defs><path style="transform:translate(0, 0px); opacity:1" fill="url(#sw-gradient-0)" d="M0,90L26.7,86.7C53.3,83,107,77,160,65C213.3,53,267,37,320,38.3C373.3,40,427,60,480,70C533.3,80,587,80,640,71.7C693.3,63,747,47,800,46.7C853.3,47,907,63,960,68.3C1013.3,73,1067,67,1120,53.3C1173.3,40,1227,20,1280,13.3C1333.3,7,1387,13,1440,13.3C1493.3,13,1547,7,1600,15C1653.3,23,1707,47,1760,48.3C1813.3,50,1867,30,1920,20C1973.3,10,2027,10,2080,15C2133.3,20,2187,30,2240,38.3C2293.3,47,2347,53,2400,53.3C2453.3,53,2507,47,2560,41.7C2613.3,37,2667,33,2720,41.7C2773.3,50,2827,70,2880,75C2933.3,80,2987,70,3040,66.7C3093.3,63,3147,67,3200,63.3C3253.3,60,3307,50,3360,53.3C3413.3,57,3467,73,3520,80C3573.3,87,3627,83,3680,80C3733.3,77,3787,73,3813,71.7L3840,70L3840,100L3813.3,100C3786.7,100,3733,100,3680,100C3626.7,100,3573,100,3520,100C3466.7,100,3413,100,3360,100C3306.7,100,3253,100,3200,100C3146.7,100,3093,100,3040,100C2986.7,100,2933,100,2880,100C2826.7,100,2773,100,2720,100C2666.7,100,2613,100,2560,100C2506.7,100,2453,100,2400,100C2346.7,100,2293,100,2240,100C2186.7,100,2133,100,2080,100C2026.7,100,1973,100,1920,100C1866.7,100,1813,100,1760,100C1706.7,100,1653,100,1600,100C1546.7,100,1493,100,1440,100C1386.7,100,1333,100,1280,100C1226.7,100,1173,100,1120,100C1066.7,100,1013,100,960,100C906.7,100,853,100,800,100C746.7,100,693,100,640,100C586.7,100,533,100,480,100C426.7,100,373,100,320,100C266.7,100,213,100,160,100C106.7,100,53,100,27,100L0,100Z"/></svg>